<mxfile host="Electron" modified="2023-06-22T07:49:43.937Z" agent="Mozilla/5.0 (Windows NT 10.0; Win64; x64) AppleWebKit/537.36 (KHTML, like Gecko) draw.io/21.2.1 Chrome/112.0.5615.87 Electron/24.1.2 Safari/537.36" etag="TgLoUQorNtnRumxLXyDf" version="21.2.1" type="device">
  <diagram name="페이지-1" id="60dfByawdCcrA-RK5z_c">
    <mxGraphModel dx="944" dy="1910" grid="1" gridSize="10" guides="1" tooltips="1" connect="1" arrows="1" fold="1" page="1" pageScale="1" pageWidth="2339" pageHeight="3300" math="0" shadow="0">
      <root>
        <mxCell id="0" />
        <mxCell id="1" parent="0" />
        <mxCell id="yJvbd4182C0c3aB8J1kj-1" value="func(int * arr,&lt;br&gt;&amp;nbsp;int arrlen)" style="shape=process;whiteSpace=wrap;html=1;backgroundOutline=1;" vertex="1" parent="1">
          <mxGeometry x="230" y="20" width="120" height="60" as="geometry" />
        </mxCell>
        <mxCell id="yJvbd4182C0c3aB8J1kj-2" value="int i:1,1,arrlen-1" style="shape=loopLimit;whiteSpace=wrap;html=1;" vertex="1" parent="1">
          <mxGeometry x="230" y="110" width="120" height="40" as="geometry" />
        </mxCell>
        <mxCell id="yJvbd4182C0c3aB8J1kj-3" value="" style="shape=loopLimit;whiteSpace=wrap;html=1;rotation=-180;" vertex="1" parent="1">
          <mxGeometry x="230" y="1890" width="120" height="40" as="geometry" />
        </mxCell>
        <mxCell id="yJvbd4182C0c3aB8J1kj-4" value="int k: 0,1,arrlen-1" style="shape=loopLimit;whiteSpace=wrap;html=1;" vertex="1" parent="1">
          <mxGeometry x="230" y="230" width="120" height="40" as="geometry" />
        </mxCell>
        <mxCell id="yJvbd4182C0c3aB8J1kj-5" value="" style="shape=loopLimit;whiteSpace=wrap;html=1;rotation=-180;" vertex="1" parent="1">
          <mxGeometry x="230" y="362" width="120" height="40" as="geometry" />
        </mxCell>
        <mxCell id="yJvbd4182C0c3aB8J1kj-6" value="arr[s]&amp;gt;arr[s+1]" style="rhombus;whiteSpace=wrap;html=1;" vertex="1" parent="1">
          <mxGeometry x="243" y="1180" width="100" height="60" as="geometry" />
        </mxCell>
        <mxCell id="yJvbd4182C0c3aB8J1kj-7" value="bool changePoint&lt;br&gt;=false" style="rounded=0;whiteSpace=wrap;html=1;" vertex="1" parent="1">
          <mxGeometry x="235" y="170" width="110" height="40" as="geometry" />
        </mxCell>
        <mxCell id="yJvbd4182C0c3aB8J1kj-9" value="" style="endArrow=classic;html=1;rounded=0;exitX=0.5;exitY=1;exitDx=0;exitDy=0;entryX=0.5;entryY=0;entryDx=0;entryDy=0;" edge="1" parent="1" source="yJvbd4182C0c3aB8J1kj-1" target="yJvbd4182C0c3aB8J1kj-2">
          <mxGeometry width="50" height="50" relative="1" as="geometry">
            <mxPoint x="700" y="410" as="sourcePoint" />
            <mxPoint x="750" y="360" as="targetPoint" />
          </mxGeometry>
        </mxCell>
        <mxCell id="yJvbd4182C0c3aB8J1kj-10" value="" style="endArrow=classic;html=1;rounded=0;exitX=0.5;exitY=1;exitDx=0;exitDy=0;entryX=0.5;entryY=0;entryDx=0;entryDy=0;" edge="1" parent="1" source="yJvbd4182C0c3aB8J1kj-2" target="yJvbd4182C0c3aB8J1kj-7">
          <mxGeometry width="50" height="50" relative="1" as="geometry">
            <mxPoint x="300" y="90" as="sourcePoint" />
            <mxPoint x="300" y="120" as="targetPoint" />
          </mxGeometry>
        </mxCell>
        <mxCell id="yJvbd4182C0c3aB8J1kj-11" value="" style="endArrow=classic;html=1;rounded=0;exitX=0.5;exitY=1;exitDx=0;exitDy=0;entryX=0.5;entryY=0;entryDx=0;entryDy=0;" edge="1" parent="1" source="yJvbd4182C0c3aB8J1kj-7" target="yJvbd4182C0c3aB8J1kj-4">
          <mxGeometry width="50" height="50" relative="1" as="geometry">
            <mxPoint x="310" y="100" as="sourcePoint" />
            <mxPoint x="310" y="130" as="targetPoint" />
          </mxGeometry>
        </mxCell>
        <mxCell id="yJvbd4182C0c3aB8J1kj-13" value="T" style="endArrow=classic;html=1;rounded=0;exitX=0.5;exitY=1;exitDx=0;exitDy=0;entryX=0.5;entryY=0;entryDx=0;entryDy=0;" edge="1" parent="1" source="yJvbd4182C0c3aB8J1kj-6">
          <mxGeometry width="50" height="50" relative="1" as="geometry">
            <mxPoint x="703" y="1300" as="sourcePoint" />
            <mxPoint x="293" y="1270" as="targetPoint" />
          </mxGeometry>
        </mxCell>
        <mxCell id="yJvbd4182C0c3aB8J1kj-18" value="int j: 0,1,arrlen-1" style="shape=loopLimit;whiteSpace=wrap;html=1;" vertex="1" parent="1">
          <mxGeometry x="230" y="500" width="120" height="40" as="geometry" />
        </mxCell>
        <mxCell id="yJvbd4182C0c3aB8J1kj-19" value="" style="shape=loopLimit;whiteSpace=wrap;html=1;rotation=-180;" vertex="1" parent="1">
          <mxGeometry x="232" y="1720" width="120" height="40" as="geometry" />
        </mxCell>
        <mxCell id="yJvbd4182C0c3aB8J1kj-20" value="arr[j]&amp;gt;arr[i]" style="rhombus;whiteSpace=wrap;html=1;" vertex="1" parent="1">
          <mxGeometry x="240" y="560" width="100" height="60" as="geometry" />
        </mxCell>
        <mxCell id="yJvbd4182C0c3aB8J1kj-21" value="" style="endArrow=classic;html=1;rounded=0;exitX=0.5;exitY=1;exitDx=0;exitDy=0;entryX=0.5;entryY=0;entryDx=0;entryDy=0;" edge="1" parent="1" source="yJvbd4182C0c3aB8J1kj-18" target="yJvbd4182C0c3aB8J1kj-20">
          <mxGeometry width="50" height="50" relative="1" as="geometry">
            <mxPoint x="700" y="680" as="sourcePoint" />
            <mxPoint x="750" y="630" as="targetPoint" />
          </mxGeometry>
        </mxCell>
        <mxCell id="yJvbd4182C0c3aB8J1kj-23" value="" style="endArrow=classic;html=1;rounded=0;entryX=0.5;entryY=1;entryDx=0;entryDy=0;exitX=0.5;exitY=0.9;exitDx=0;exitDy=0;exitPerimeter=0;" edge="1" parent="1" source="yJvbd4182C0c3aB8J1kj-24" target="yJvbd4182C0c3aB8J1kj-19">
          <mxGeometry width="50" height="50" relative="1" as="geometry">
            <mxPoint x="407" y="1790" as="sourcePoint" />
            <mxPoint x="867" y="1670" as="targetPoint" />
          </mxGeometry>
        </mxCell>
        <mxCell id="yJvbd4182C0c3aB8J1kj-24" value="cout&amp;lt;&amp;lt;&quot; +&quot;&lt;br&gt;break" style="shape=document;whiteSpace=wrap;html=1;boundedLbl=1;" vertex="1" parent="1">
          <mxGeometry x="243" y="1660" width="100" height="50" as="geometry" />
        </mxCell>
        <mxCell id="yJvbd4182C0c3aB8J1kj-34" value="cout&amp;lt;&amp;lt;endl" style="shape=document;whiteSpace=wrap;html=1;boundedLbl=1;" vertex="1" parent="1">
          <mxGeometry x="242" y="1790" width="100" height="50" as="geometry" />
        </mxCell>
        <mxCell id="yJvbd4182C0c3aB8J1kj-35" value="" style="endArrow=classic;html=1;rounded=0;exitX=0.5;exitY=0;exitDx=0;exitDy=0;" edge="1" parent="1" source="yJvbd4182C0c3aB8J1kj-19" target="yJvbd4182C0c3aB8J1kj-34">
          <mxGeometry width="50" height="50" relative="1" as="geometry">
            <mxPoint x="272" y="1650" as="sourcePoint" />
            <mxPoint x="322" y="1600" as="targetPoint" />
          </mxGeometry>
        </mxCell>
        <mxCell id="yJvbd4182C0c3aB8J1kj-39" value="" style="endArrow=classic;html=1;rounded=0;entryX=0.5;entryY=1;entryDx=0;entryDy=0;exitX=0.477;exitY=0.873;exitDx=0;exitDy=0;exitPerimeter=0;" edge="1" parent="1" source="yJvbd4182C0c3aB8J1kj-34" target="yJvbd4182C0c3aB8J1kj-3">
          <mxGeometry width="50" height="50" relative="1" as="geometry">
            <mxPoint x="291.9999999999999" y="1975" as="sourcePoint" />
            <mxPoint x="291.9999999999999" y="1870" as="targetPoint" />
          </mxGeometry>
        </mxCell>
        <mxCell id="yJvbd4182C0c3aB8J1kj-43" value="" style="endArrow=classic;html=1;rounded=0;exitX=0.5;exitY=0;exitDx=0;exitDy=0;entryX=0.5;entryY=0;entryDx=0;entryDy=0;" edge="1" parent="1" source="yJvbd4182C0c3aB8J1kj-5" target="yJvbd4182C0c3aB8J1kj-50">
          <mxGeometry width="50" height="50" relative="1" as="geometry">
            <mxPoint x="540" y="562" as="sourcePoint" />
            <mxPoint x="590" y="512" as="targetPoint" />
          </mxGeometry>
        </mxCell>
        <mxCell id="yJvbd4182C0c3aB8J1kj-44" value="swap(int &amp;amp;a,&lt;br&gt;&amp;nbsp;int &amp;amp;b)" style="shape=process;whiteSpace=wrap;html=1;backgroundOutline=1;" vertex="1" parent="1">
          <mxGeometry x="40" y="20" width="120" height="60" as="geometry" />
        </mxCell>
        <mxCell id="yJvbd4182C0c3aB8J1kj-45" value="int temp=a&lt;br&gt;a=b&lt;br&gt;b=temp" style="rounded=0;whiteSpace=wrap;html=1;" vertex="1" parent="1">
          <mxGeometry x="40" y="110" width="120" height="60" as="geometry" />
        </mxCell>
        <mxCell id="yJvbd4182C0c3aB8J1kj-46" value="" style="endArrow=classic;html=1;rounded=0;exitX=0.5;exitY=1;exitDx=0;exitDy=0;entryX=0.5;entryY=0;entryDx=0;entryDy=0;" edge="1" parent="1" source="yJvbd4182C0c3aB8J1kj-44" target="yJvbd4182C0c3aB8J1kj-45">
          <mxGeometry width="50" height="50" relative="1" as="geometry">
            <mxPoint x="120" y="240" as="sourcePoint" />
            <mxPoint x="170" y="190" as="targetPoint" />
          </mxGeometry>
        </mxCell>
        <mxCell id="yJvbd4182C0c3aB8J1kj-47" value="arr[k]" style="shape=document;whiteSpace=wrap;html=1;boundedLbl=1;" vertex="1" parent="1">
          <mxGeometry x="237.5" y="288" width="105" height="60" as="geometry" />
        </mxCell>
        <mxCell id="yJvbd4182C0c3aB8J1kj-48" value="" style="endArrow=classic;html=1;rounded=0;exitX=0.5;exitY=1;exitDx=0;exitDy=0;entryX=0.5;entryY=0;entryDx=0;entryDy=0;" edge="1" parent="1" source="yJvbd4182C0c3aB8J1kj-4" target="yJvbd4182C0c3aB8J1kj-47">
          <mxGeometry width="50" height="50" relative="1" as="geometry">
            <mxPoint x="180" y="440" as="sourcePoint" />
            <mxPoint x="230" y="390" as="targetPoint" />
          </mxGeometry>
        </mxCell>
        <mxCell id="yJvbd4182C0c3aB8J1kj-49" value="" style="endArrow=classic;html=1;rounded=0;exitX=0.508;exitY=0.855;exitDx=0;exitDy=0;entryX=0.5;entryY=1;entryDx=0;entryDy=0;exitPerimeter=0;" edge="1" parent="1" source="yJvbd4182C0c3aB8J1kj-47" target="yJvbd4182C0c3aB8J1kj-5">
          <mxGeometry width="50" height="50" relative="1" as="geometry">
            <mxPoint x="300" y="268" as="sourcePoint" />
            <mxPoint x="300" y="298" as="targetPoint" />
          </mxGeometry>
        </mxCell>
        <mxCell id="yJvbd4182C0c3aB8J1kj-50" value="cout&amp;lt;&amp;lt;endl" style="shape=document;whiteSpace=wrap;html=1;boundedLbl=1;" vertex="1" parent="1">
          <mxGeometry x="237.5" y="420" width="105" height="60" as="geometry" />
        </mxCell>
        <mxCell id="yJvbd4182C0c3aB8J1kj-51" value="" style="endArrow=classic;html=1;rounded=0;entryX=0.5;entryY=0;entryDx=0;entryDy=0;" edge="1" parent="1" target="yJvbd4182C0c3aB8J1kj-18">
          <mxGeometry width="50" height="50" relative="1" as="geometry">
            <mxPoint x="290" y="470" as="sourcePoint" />
            <mxPoint x="330" y="720" as="targetPoint" />
          </mxGeometry>
        </mxCell>
        <mxCell id="yJvbd4182C0c3aB8J1kj-52" value="n==j" style="rhombus;whiteSpace=wrap;html=1;" vertex="1" parent="1">
          <mxGeometry x="240" y="800" width="100" height="60" as="geometry" />
        </mxCell>
        <mxCell id="yJvbd4182C0c3aB8J1kj-53" value="T" style="endArrow=classic;html=1;rounded=0;exitX=0.5;exitY=1;exitDx=0;exitDy=0;entryX=0.5;entryY=0;entryDx=0;entryDy=0;" edge="1" parent="1" source="yJvbd4182C0c3aB8J1kj-52" target="yJvbd4182C0c3aB8J1kj-55">
          <mxGeometry width="50" height="50" relative="1" as="geometry">
            <mxPoint x="700" y="920" as="sourcePoint" />
            <mxPoint x="290" y="890" as="targetPoint" />
          </mxGeometry>
        </mxCell>
        <mxCell id="yJvbd4182C0c3aB8J1kj-54" value="" style="endArrow=classic;html=1;rounded=0;entryX=0.5;entryY=1;entryDx=0;entryDy=0;exitX=0.5;exitY=0.9;exitDx=0;exitDy=0;exitPerimeter=0;" edge="1" parent="1" source="yJvbd4182C0c3aB8J1kj-55">
          <mxGeometry width="50" height="50" relative="1" as="geometry">
            <mxPoint x="290" y="990" as="sourcePoint" />
            <mxPoint x="290" y="973" as="targetPoint" />
          </mxGeometry>
        </mxCell>
        <mxCell id="yJvbd4182C0c3aB8J1kj-55" value="cout&amp;lt;&amp;lt;&quot;^--&quot;" style="shape=document;whiteSpace=wrap;html=1;boundedLbl=1;" vertex="1" parent="1">
          <mxGeometry x="240" y="890" width="100" height="50" as="geometry" />
        </mxCell>
        <mxCell id="yJvbd4182C0c3aB8J1kj-56" value="F" style="endArrow=classic;html=1;rounded=0;exitX=1;exitY=0.5;exitDx=0;exitDy=0;entryX=0;entryY=0.5;entryDx=0;entryDy=0;" edge="1" parent="1" source="yJvbd4182C0c3aB8J1kj-52">
          <mxGeometry width="50" height="50" relative="1" as="geometry">
            <mxPoint x="400" y="880" as="sourcePoint" />
            <mxPoint x="380" y="830" as="targetPoint" />
          </mxGeometry>
        </mxCell>
        <mxCell id="yJvbd4182C0c3aB8J1kj-57" value="T" style="endArrow=classic;html=1;rounded=0;exitX=0.5;exitY=1;exitDx=0;exitDy=0;entryX=0.5;entryY=0;entryDx=0;entryDy=0;" edge="1" parent="1" target="yJvbd4182C0c3aB8J1kj-58">
          <mxGeometry width="50" height="50" relative="1" as="geometry">
            <mxPoint x="430" y="860" as="sourcePoint" />
            <mxPoint x="430" y="890" as="targetPoint" />
          </mxGeometry>
        </mxCell>
        <mxCell id="yJvbd4182C0c3aB8J1kj-58" value="cout&amp;lt;&amp;lt;&quot;---&quot;" style="shape=document;whiteSpace=wrap;html=1;boundedLbl=1;" vertex="1" parent="1">
          <mxGeometry x="380" y="890" width="100" height="50" as="geometry" />
        </mxCell>
        <mxCell id="yJvbd4182C0c3aB8J1kj-59" value="F" style="endArrow=classic;html=1;rounded=0;exitX=1;exitY=0.5;exitDx=0;exitDy=0;entryX=0;entryY=0.5;entryDx=0;entryDy=0;" edge="1" parent="1">
          <mxGeometry width="50" height="50" relative="1" as="geometry">
            <mxPoint x="480" y="830" as="sourcePoint" />
            <mxPoint x="530" y="830" as="targetPoint" />
          </mxGeometry>
        </mxCell>
        <mxCell id="yJvbd4182C0c3aB8J1kj-61" value="" style="endArrow=none;html=1;rounded=0;entryX=0.51;entryY=0.86;entryDx=0;entryDy=0;entryPerimeter=0;" edge="1" parent="1" target="yJvbd4182C0c3aB8J1kj-58">
          <mxGeometry width="50" height="50" relative="1" as="geometry">
            <mxPoint x="431" y="950" as="sourcePoint" />
            <mxPoint x="596" y="855" as="targetPoint" />
          </mxGeometry>
        </mxCell>
        <mxCell id="yJvbd4182C0c3aB8J1kj-62" value="" style="endArrow=classic;html=1;rounded=0;" edge="1" parent="1">
          <mxGeometry width="50" height="50" relative="1" as="geometry">
            <mxPoint x="700" y="950" as="sourcePoint" />
            <mxPoint x="290" y="950" as="targetPoint" />
          </mxGeometry>
        </mxCell>
        <mxCell id="yJvbd4182C0c3aB8J1kj-63" value="changePoint&lt;br&gt;=true" style="rounded=0;whiteSpace=wrap;html=1;" vertex="1" parent="1">
          <mxGeometry x="235" y="660" width="110" height="40" as="geometry" />
        </mxCell>
        <mxCell id="yJvbd4182C0c3aB8J1kj-64" value="T" style="endArrow=classic;html=1;rounded=0;entryX=0.5;entryY=0;entryDx=0;entryDy=0;exitX=0.5;exitY=1;exitDx=0;exitDy=0;" edge="1" parent="1" source="yJvbd4182C0c3aB8J1kj-20" target="yJvbd4182C0c3aB8J1kj-63">
          <mxGeometry width="50" height="50" relative="1" as="geometry">
            <mxPoint x="465" y="392" as="sourcePoint" />
            <mxPoint x="465" y="430" as="targetPoint" />
          </mxGeometry>
        </mxCell>
        <mxCell id="yJvbd4182C0c3aB8J1kj-65" value="int n: 0,1,arrlen-1" style="shape=loopLimit;whiteSpace=wrap;html=1;" vertex="1" parent="1">
          <mxGeometry x="230" y="730" width="120" height="40" as="geometry" />
        </mxCell>
        <mxCell id="yJvbd4182C0c3aB8J1kj-66" value="n &amp;gt; j &amp;amp;&amp;amp; n &amp;lt; i" style="rhombus;whiteSpace=wrap;html=1;" vertex="1" parent="1">
          <mxGeometry x="380" y="800" width="100" height="60" as="geometry" />
        </mxCell>
        <mxCell id="yJvbd4182C0c3aB8J1kj-67" value="n &amp;lt; j" style="rhombus;whiteSpace=wrap;html=1;" vertex="1" parent="1">
          <mxGeometry x="530" y="800" width="100" height="60" as="geometry" />
        </mxCell>
        <mxCell id="yJvbd4182C0c3aB8J1kj-68" value="" style="endArrow=classic;html=1;rounded=0;exitX=0.5;exitY=1;exitDx=0;exitDy=0;" edge="1" parent="1" source="yJvbd4182C0c3aB8J1kj-63" target="yJvbd4182C0c3aB8J1kj-65">
          <mxGeometry width="50" height="50" relative="1" as="geometry">
            <mxPoint x="310" y="860" as="sourcePoint" />
            <mxPoint x="360" y="810" as="targetPoint" />
          </mxGeometry>
        </mxCell>
        <mxCell id="yJvbd4182C0c3aB8J1kj-69" value="" style="endArrow=classic;html=1;rounded=0;exitX=0.5;exitY=1;exitDx=0;exitDy=0;entryX=0.5;entryY=0;entryDx=0;entryDy=0;" edge="1" parent="1" source="yJvbd4182C0c3aB8J1kj-65" target="yJvbd4182C0c3aB8J1kj-52">
          <mxGeometry width="50" height="50" relative="1" as="geometry">
            <mxPoint x="300" y="710" as="sourcePoint" />
            <mxPoint x="300" y="740" as="targetPoint" />
          </mxGeometry>
        </mxCell>
        <mxCell id="yJvbd4182C0c3aB8J1kj-71" value="T" style="endArrow=classic;html=1;rounded=0;exitX=0.5;exitY=1;exitDx=0;exitDy=0;entryX=0.5;entryY=0;entryDx=0;entryDy=0;" edge="1" parent="1" target="yJvbd4182C0c3aB8J1kj-72">
          <mxGeometry width="50" height="50" relative="1" as="geometry">
            <mxPoint x="580" y="860" as="sourcePoint" />
            <mxPoint x="580" y="890" as="targetPoint" />
          </mxGeometry>
        </mxCell>
        <mxCell id="yJvbd4182C0c3aB8J1kj-72" value="cout&amp;lt;&amp;lt;&quot;&amp;nbsp; &amp;nbsp;&quot;" style="shape=document;whiteSpace=wrap;html=1;boundedLbl=1;" vertex="1" parent="1">
          <mxGeometry x="530" y="890" width="100" height="50" as="geometry" />
        </mxCell>
        <mxCell id="yJvbd4182C0c3aB8J1kj-73" value="" style="endArrow=none;html=1;rounded=0;entryX=0.523;entryY=0.793;entryDx=0;entryDy=0;entryPerimeter=0;" edge="1" parent="1">
          <mxGeometry width="50" height="50" relative="1" as="geometry">
            <mxPoint x="580" y="950" as="sourcePoint" />
            <mxPoint x="580.3" y="929.6499999999999" as="targetPoint" />
          </mxGeometry>
        </mxCell>
        <mxCell id="yJvbd4182C0c3aB8J1kj-74" value="F" style="endArrow=classic;html=1;rounded=0;exitX=1;exitY=0.5;exitDx=0;exitDy=0;entryX=0.5;entryY=0;entryDx=0;entryDy=0;" edge="1" parent="1" source="yJvbd4182C0c3aB8J1kj-67" target="yJvbd4182C0c3aB8J1kj-75">
          <mxGeometry width="50" height="50" relative="1" as="geometry">
            <mxPoint x="490" y="840" as="sourcePoint" />
            <mxPoint x="680" y="830" as="targetPoint" />
            <Array as="points">
              <mxPoint x="700" y="830" />
            </Array>
          </mxGeometry>
        </mxCell>
        <mxCell id="yJvbd4182C0c3aB8J1kj-75" value="cout&amp;lt;&amp;lt;&quot;-+&quot;" style="shape=document;whiteSpace=wrap;html=1;boundedLbl=1;" vertex="1" parent="1">
          <mxGeometry x="650" y="839" width="100" height="50" as="geometry" />
        </mxCell>
        <mxCell id="yJvbd4182C0c3aB8J1kj-76" value="" style="endArrow=none;html=1;rounded=0;entryX=0.5;entryY=1;entryDx=0;entryDy=0;" edge="1" parent="1">
          <mxGeometry width="50" height="50" relative="1" as="geometry">
            <mxPoint x="700" y="952" as="sourcePoint" />
            <mxPoint x="699" y="919.9999999999998" as="targetPoint" />
          </mxGeometry>
        </mxCell>
        <mxCell id="yJvbd4182C0c3aB8J1kj-77" value="break" style="rounded=0;whiteSpace=wrap;html=1;" vertex="1" parent="1">
          <mxGeometry x="650" y="905" width="100" height="20" as="geometry" />
        </mxCell>
        <mxCell id="yJvbd4182C0c3aB8J1kj-78" value="" style="endArrow=classic;html=1;rounded=0;entryX=0.5;entryY=0;entryDx=0;entryDy=0;" edge="1" parent="1" target="yJvbd4182C0c3aB8J1kj-77">
          <mxGeometry width="50" height="50" relative="1" as="geometry">
            <mxPoint x="700" y="880" as="sourcePoint" />
            <mxPoint x="650" y="900" as="targetPoint" />
          </mxGeometry>
        </mxCell>
        <mxCell id="yJvbd4182C0c3aB8J1kj-79" value="cout&amp;lt;&amp;lt;endl&lt;br&gt;break" style="shape=document;whiteSpace=wrap;html=1;boundedLbl=1;" vertex="1" parent="1">
          <mxGeometry x="237.5" y="970" width="105" height="60" as="geometry" />
        </mxCell>
        <mxCell id="yJvbd4182C0c3aB8J1kj-80" value="" style="shape=loopLimit;whiteSpace=wrap;html=1;rotation=-180;" vertex="1" parent="1">
          <mxGeometry x="232" y="1060" width="120" height="40" as="geometry" />
        </mxCell>
        <mxCell id="yJvbd4182C0c3aB8J1kj-81" value="" style="endArrow=classic;html=1;rounded=0;exitX=0.52;exitY=0.825;exitDx=0;exitDy=0;exitPerimeter=0;entryX=0.5;entryY=1;entryDx=0;entryDy=0;" edge="1" parent="1" source="yJvbd4182C0c3aB8J1kj-79" target="yJvbd4182C0c3aB8J1kj-80">
          <mxGeometry width="50" height="50" relative="1" as="geometry">
            <mxPoint x="330" y="1010" as="sourcePoint" />
            <mxPoint x="380" y="960" as="targetPoint" />
          </mxGeometry>
        </mxCell>
        <mxCell id="yJvbd4182C0c3aB8J1kj-82" value="F" style="endArrow=classic;html=1;rounded=0;exitX=0;exitY=0.5;exitDx=0;exitDy=0;" edge="1" parent="1" source="yJvbd4182C0c3aB8J1kj-20">
          <mxGeometry width="50" height="50" relative="1" as="geometry">
            <mxPoint x="330" y="1010" as="sourcePoint" />
            <mxPoint x="290" y="1040" as="targetPoint" />
            <Array as="points">
              <mxPoint x="180" y="590" />
              <mxPoint x="180" y="1040" />
            </Array>
          </mxGeometry>
        </mxCell>
        <mxCell id="yJvbd4182C0c3aB8J1kj-83" value="int s: i-1,-1,0" style="shape=loopLimit;whiteSpace=wrap;html=1;rotation=0;" vertex="1" parent="1">
          <mxGeometry x="233" y="1120" width="120" height="40" as="geometry" />
        </mxCell>
        <mxCell id="yJvbd4182C0c3aB8J1kj-84" value="" style="endArrow=classic;html=1;rounded=0;exitX=0.5;exitY=0;exitDx=0;exitDy=0;entryX=0.5;entryY=0;entryDx=0;entryDy=0;" edge="1" parent="1" source="yJvbd4182C0c3aB8J1kj-80" target="yJvbd4182C0c3aB8J1kj-83">
          <mxGeometry width="50" height="50" relative="1" as="geometry">
            <mxPoint x="310" y="1160" as="sourcePoint" />
            <mxPoint x="360" y="1110" as="targetPoint" />
          </mxGeometry>
        </mxCell>
        <mxCell id="yJvbd4182C0c3aB8J1kj-85" value="swap(int &amp;amp;a,&lt;br&gt;&amp;nbsp;int &amp;amp;b)" style="shape=process;whiteSpace=wrap;html=1;backgroundOutline=1;" vertex="1" parent="1">
          <mxGeometry x="233" y="1270" width="120" height="60" as="geometry" />
        </mxCell>
        <mxCell id="yJvbd4182C0c3aB8J1kj-86" value="" style="endArrow=classic;html=1;rounded=0;exitX=0.5;exitY=1;exitDx=0;exitDy=0;entryX=0.5;entryY=0;entryDx=0;entryDy=0;" edge="1" parent="1" source="yJvbd4182C0c3aB8J1kj-83" target="yJvbd4182C0c3aB8J1kj-6">
          <mxGeometry width="50" height="50" relative="1" as="geometry">
            <mxPoint x="350" y="1340" as="sourcePoint" />
            <mxPoint x="400" y="1290" as="targetPoint" />
          </mxGeometry>
        </mxCell>
        <mxCell id="yJvbd4182C0c3aB8J1kj-87" value="" style="shape=loopLimit;whiteSpace=wrap;html=1;rotation=-180;" vertex="1" parent="1">
          <mxGeometry x="232" y="1370" width="120" height="40" as="geometry" />
        </mxCell>
        <mxCell id="yJvbd4182C0c3aB8J1kj-88" value="" style="endArrow=classic;html=1;rounded=0;exitX=0.5;exitY=1;exitDx=0;exitDy=0;entryX=0.5;entryY=1;entryDx=0;entryDy=0;" edge="1" parent="1" source="yJvbd4182C0c3aB8J1kj-85" target="yJvbd4182C0c3aB8J1kj-87">
          <mxGeometry width="50" height="50" relative="1" as="geometry">
            <mxPoint x="350" y="1340" as="sourcePoint" />
            <mxPoint x="400" y="1290" as="targetPoint" />
          </mxGeometry>
        </mxCell>
        <mxCell id="yJvbd4182C0c3aB8J1kj-89" value="F" style="endArrow=classic;html=1;rounded=0;exitX=1;exitY=0.5;exitDx=0;exitDy=0;" edge="1" parent="1" source="yJvbd4182C0c3aB8J1kj-6">
          <mxGeometry width="50" height="50" relative="1" as="geometry">
            <mxPoint x="350" y="1340" as="sourcePoint" />
            <mxPoint x="293" y="1350" as="targetPoint" />
            <Array as="points">
              <mxPoint x="390" y="1210" />
              <mxPoint x="390" y="1350" />
            </Array>
          </mxGeometry>
        </mxCell>
        <mxCell id="yJvbd4182C0c3aB8J1kj-90" value="changPoint&lt;br&gt;=false;" style="rhombus;whiteSpace=wrap;html=1;" vertex="1" parent="1">
          <mxGeometry x="237" y="1430" width="110" height="65" as="geometry" />
        </mxCell>
        <mxCell id="yJvbd4182C0c3aB8J1kj-91" value="" style="endArrow=classic;html=1;rounded=0;exitX=0.5;exitY=0;exitDx=0;exitDy=0;entryX=0.5;entryY=0;entryDx=0;entryDy=0;" edge="1" parent="1" source="yJvbd4182C0c3aB8J1kj-87" target="yJvbd4182C0c3aB8J1kj-90">
          <mxGeometry width="50" height="50" relative="1" as="geometry">
            <mxPoint x="360" y="1670" as="sourcePoint" />
            <mxPoint x="410" y="1620" as="targetPoint" />
          </mxGeometry>
        </mxCell>
        <mxCell id="yJvbd4182C0c3aB8J1kj-94" value="T" style="endArrow=classic;html=1;rounded=0;exitX=0.5;exitY=1;exitDx=0;exitDy=0;entryX=0.5;entryY=0;entryDx=0;entryDy=0;" edge="1" parent="1" source="yJvbd4182C0c3aB8J1kj-90" target="yJvbd4182C0c3aB8J1kj-95">
          <mxGeometry width="50" height="50" relative="1" as="geometry">
            <mxPoint x="360" y="1670" as="sourcePoint" />
            <mxPoint x="500" y="1480" as="targetPoint" />
          </mxGeometry>
        </mxCell>
        <mxCell id="yJvbd4182C0c3aB8J1kj-95" value="int n: 0,1, arrlen-1" style="shape=loopLimit;whiteSpace=wrap;html=1;rotation=0;" vertex="1" parent="1">
          <mxGeometry x="232" y="1520" width="120" height="40" as="geometry" />
        </mxCell>
        <mxCell id="yJvbd4182C0c3aB8J1kj-96" value="n==i" style="rhombus;whiteSpace=wrap;html=1;" vertex="1" parent="1">
          <mxGeometry x="239.5" y="1580" width="105" height="40" as="geometry" />
        </mxCell>
        <mxCell id="yJvbd4182C0c3aB8J1kj-97" value="cout&amp;lt;&amp;lt;&quot;&amp;nbsp; &amp;nbsp;&quot;" style="shape=document;whiteSpace=wrap;html=1;boundedLbl=1;" vertex="1" parent="1">
          <mxGeometry x="390" y="1575" width="100" height="50" as="geometry" />
        </mxCell>
        <mxCell id="yJvbd4182C0c3aB8J1kj-98" value="" style="endArrow=classic;html=1;rounded=0;exitX=0.5;exitY=1;exitDx=0;exitDy=0;entryX=0.5;entryY=0;entryDx=0;entryDy=0;" edge="1" parent="1" source="yJvbd4182C0c3aB8J1kj-95" target="yJvbd4182C0c3aB8J1kj-96">
          <mxGeometry width="50" height="50" relative="1" as="geometry">
            <mxPoint x="370" y="1500" as="sourcePoint" />
            <mxPoint x="420" y="1450" as="targetPoint" />
          </mxGeometry>
        </mxCell>
        <mxCell id="yJvbd4182C0c3aB8J1kj-99" value="F" style="endArrow=classic;html=1;rounded=0;exitX=1;exitY=0.5;exitDx=0;exitDy=0;entryX=0;entryY=0.5;entryDx=0;entryDy=0;" edge="1" parent="1" source="yJvbd4182C0c3aB8J1kj-96" target="yJvbd4182C0c3aB8J1kj-97">
          <mxGeometry width="50" height="50" relative="1" as="geometry">
            <mxPoint x="370" y="1500" as="sourcePoint" />
            <mxPoint x="420" y="1450" as="targetPoint" />
          </mxGeometry>
        </mxCell>
        <mxCell id="yJvbd4182C0c3aB8J1kj-100" value="T" style="endArrow=classic;html=1;rounded=0;exitX=0.5;exitY=1;exitDx=0;exitDy=0;entryX=0.5;entryY=0;entryDx=0;entryDy=0;" edge="1" parent="1" source="yJvbd4182C0c3aB8J1kj-96" target="yJvbd4182C0c3aB8J1kj-24">
          <mxGeometry width="50" height="50" relative="1" as="geometry">
            <mxPoint x="370" y="1500" as="sourcePoint" />
            <mxPoint x="420" y="1450" as="targetPoint" />
          </mxGeometry>
        </mxCell>
        <mxCell id="yJvbd4182C0c3aB8J1kj-101" value="F" style="endArrow=classic;html=1;rounded=0;exitX=0;exitY=0.5;exitDx=0;exitDy=0;" edge="1" parent="1" source="yJvbd4182C0c3aB8J1kj-90">
          <mxGeometry width="50" height="50" relative="1" as="geometry">
            <mxPoint x="240" y="1510" as="sourcePoint" />
            <mxPoint x="290" y="1860" as="targetPoint" />
            <Array as="points">
              <mxPoint x="200" y="1463" />
              <mxPoint x="200" y="1860" />
            </Array>
          </mxGeometry>
        </mxCell>
        <mxCell id="yJvbd4182C0c3aB8J1kj-102" value="int k: 0,1,arrlen-1" style="shape=loopLimit;whiteSpace=wrap;html=1;" vertex="1" parent="1">
          <mxGeometry x="230" y="1950" width="120" height="40" as="geometry" />
        </mxCell>
        <mxCell id="yJvbd4182C0c3aB8J1kj-103" value="" style="shape=loopLimit;whiteSpace=wrap;html=1;rotation=-180;" vertex="1" parent="1">
          <mxGeometry x="230" y="2082" width="120" height="40" as="geometry" />
        </mxCell>
        <mxCell id="yJvbd4182C0c3aB8J1kj-104" value="" style="endArrow=classic;html=1;rounded=0;exitX=0.5;exitY=0;exitDx=0;exitDy=0;entryX=0.5;entryY=0;entryDx=0;entryDy=0;" edge="1" parent="1" source="yJvbd4182C0c3aB8J1kj-103" target="yJvbd4182C0c3aB8J1kj-108">
          <mxGeometry width="50" height="50" relative="1" as="geometry">
            <mxPoint x="540" y="2282" as="sourcePoint" />
            <mxPoint x="590" y="2232" as="targetPoint" />
          </mxGeometry>
        </mxCell>
        <mxCell id="yJvbd4182C0c3aB8J1kj-105" value="arr[k]" style="shape=document;whiteSpace=wrap;html=1;boundedLbl=1;" vertex="1" parent="1">
          <mxGeometry x="237.5" y="2008" width="105" height="60" as="geometry" />
        </mxCell>
        <mxCell id="yJvbd4182C0c3aB8J1kj-106" value="" style="endArrow=classic;html=1;rounded=0;exitX=0.5;exitY=1;exitDx=0;exitDy=0;entryX=0.5;entryY=0;entryDx=0;entryDy=0;" edge="1" parent="1" source="yJvbd4182C0c3aB8J1kj-102" target="yJvbd4182C0c3aB8J1kj-105">
          <mxGeometry width="50" height="50" relative="1" as="geometry">
            <mxPoint x="180" y="2160" as="sourcePoint" />
            <mxPoint x="230" y="2110" as="targetPoint" />
          </mxGeometry>
        </mxCell>
        <mxCell id="yJvbd4182C0c3aB8J1kj-107" value="" style="endArrow=classic;html=1;rounded=0;exitX=0.508;exitY=0.855;exitDx=0;exitDy=0;entryX=0.5;entryY=1;entryDx=0;entryDy=0;exitPerimeter=0;" edge="1" parent="1" source="yJvbd4182C0c3aB8J1kj-105" target="yJvbd4182C0c3aB8J1kj-103">
          <mxGeometry width="50" height="50" relative="1" as="geometry">
            <mxPoint x="300" y="1988" as="sourcePoint" />
            <mxPoint x="300" y="2018" as="targetPoint" />
          </mxGeometry>
        </mxCell>
        <mxCell id="yJvbd4182C0c3aB8J1kj-108" value="cout&amp;lt;&amp;lt;endl" style="shape=document;whiteSpace=wrap;html=1;boundedLbl=1;" vertex="1" parent="1">
          <mxGeometry x="237.5" y="2140" width="105" height="60" as="geometry" />
        </mxCell>
        <mxCell id="yJvbd4182C0c3aB8J1kj-110" value="" style="endArrow=classic;html=1;rounded=0;exitX=0.5;exitY=0;exitDx=0;exitDy=0;entryX=0.5;entryY=0;entryDx=0;entryDy=0;" edge="1" parent="1" source="yJvbd4182C0c3aB8J1kj-3" target="yJvbd4182C0c3aB8J1kj-102">
          <mxGeometry width="50" height="50" relative="1" as="geometry">
            <mxPoint x="360" y="1840" as="sourcePoint" />
            <mxPoint x="410" y="1790" as="targetPoint" />
          </mxGeometry>
        </mxCell>
      </root>
    </mxGraphModel>
  </diagram>
</mxfile>
